<svg width="12" height="12" viewBox="0 0 12 12" fill="none" xmlns="http://www.w3.org/2000/svg">
<g clip-path="url(#clip0_22_492)">
<path d="M6 0.1875C2.78906 0.1875 0.1875 2.78906 0.1875 6C0.1875 9.21094 2.78906 11.8125 6 11.8125C9.21094 11.8125 11.8125 9.21094 11.8125 6C11.8125 2.78906 9.21094 0.1875 6 0.1875ZM6 10.6875C3.41016 10.6875 1.3125 8.58984 1.3125 6C1.3125 3.41016 3.41016 1.3125 6 1.3125C8.58984 1.3125 10.6875 3.41016 10.6875 6C10.6875 8.58984 8.58984 10.6875 6 10.6875ZM7.44844 8.24063L5.45859 6.79453C5.38594 6.74062 5.34375 6.65625 5.34375 6.56719V2.71875C5.34375 2.56406 5.47031 2.4375 5.625 2.4375H6.375C6.52969 2.4375 6.65625 2.56406 6.65625 2.71875V6.03984L8.22187 7.17891C8.34844 7.27031 8.37422 7.44609 8.28281 7.57266L7.84219 8.17969C7.75078 8.30391 7.575 8.33203 7.44844 8.24063Z" fill="#141414"/>
</g>
<defs>
<clipPath id="clip0_22_492">
<rect width="12" height="12" fill="white"/>
</clipPath>
</defs>
</svg>
