<svg width="17" height="16" viewBox="0 0 17 16" fill="none" xmlns="http://www.w3.org/2000/svg">
<path d="M15.0306 1.26055C13.1586 -0.448047 10.2662 -0.191406 8.47514 1.78789C6.68404 -0.191406 3.79172 -0.451563 1.91964 1.26055C-0.516002 3.48594 -0.159724 7.11406 1.57632 9.03711L7.25732 15.3195C7.58121 15.6781 8.01522 15.8785 8.47514 15.8785C8.9383 15.8785 9.36908 15.6816 9.69297 15.323L15.374 9.04063C17.1068 7.11758 17.4695 3.48945 15.0306 1.26055ZM14.2663 7.85234L8.58527 14.1348C8.50753 14.2191 8.44276 14.2191 8.36502 14.1348L2.68402 7.85234C1.50182 6.54453 1.26215 4.06953 2.92046 2.5543C4.18038 1.40469 6.12371 1.57695 7.34153 2.92344L8.47514 4.17852L9.60875 2.92344C10.8331 1.56992 12.7764 1.40469 14.0298 2.55078C15.6849 4.06602 15.4387 6.55508 14.2663 7.85234Z" fill="#092e0b"/>
</svg>
