<svg width="12" height="12" viewBox="0 0 12 12" fill="none" xmlns="http://www.w3.org/2000/svg">
<g clip-path="url(#clip0_22_486)">
<path d="M10.7143 1.5H9.42857V0.375C9.42857 0.16875 9.23572 0 9 0H8.14286C7.90714 0 7.71429 0.16875 7.71429 0.375V1.5H4.28571V0.375C4.28571 0.16875 4.09286 0 3.85714 0H3C2.76429 0 2.57143 0.16875 2.57143 0.375V1.5H1.28571C0.575893 1.5 0 2.00391 0 2.625V10.875C0 11.4961 0.575893 12 1.28571 12H10.7143C11.4241 12 12 11.4961 12 10.875V2.625C12 2.00391 11.4241 1.5 10.7143 1.5ZM10.7143 10.7344C10.7143 10.8117 10.642 10.875 10.5536 10.875H1.44643C1.35804 10.875 1.28571 10.8117 1.28571 10.7344V3.75H10.7143V10.7344Z" fill="#141414"/>
<rect x="3" y="6" width="3" height="3" rx="0.4" fill="#141414"/>
</g>
<defs>
<clipPath id="clip0_22_486">
<rect width="12" height="12" fill="white"/>
</clipPath>
</defs>
</svg>
