<svg version="1.1" xmlns="http://www.w3.org/2000/svg" xmlns:xlink="http://www.w3.org/1999/xlink" width="68px" height="68px" viewBox="0,0,256,256"><g fill="none" fill-rule="nonzero" stroke="none" stroke-width="1" stroke-linecap="butt" stroke-linejoin="miter" stroke-miterlimit="10" stroke-dasharray="" stroke-dashoffset="0" font-family="none" font-weight="none" font-size="none" text-anchor="none" style="mix-blend-mode: normal"><g transform="scale(3.76471,3.76471)"><rect x="-24.37128" y="14.85734" transform="rotate(-81.171)" width="8.25" height="3" fill="#435e88"></rect><path d="M18.47978,26.74917l-0.89014,5.77002l-11.91992,-1.8501l0.01001,-0.08008l0.87988,-5.68994c0.15015,-0.93018 1.02002,-1.56982 1.94995,-1.43018l8.55005,1.33008c0.46021,0.06982 0.8501,0.31982 1.1001,0.66992c0.27002,0.36035 0.3999,0.81006 0.32007,1.28027z" fill="#5e7599"></path><path d="M11.75134,51.94749c10.07944,-8.67985 5.83704,-19.43119 5.83704,-19.43119l-11.92313,-1.85206c0,0 -7.30389,8.95781 -0.33241,20.28624c1.37203,2.22951 4.43481,2.70526 6.41851,0.99701z" fill="#ffd80c"></path><path d="M11.7498,51.94888c-1.53027,1.32031 -3.7002,1.34033 -5.24023,0.24023c0.58008,-0.16016 1.13013,-0.4502 1.62012,-0.87012c9.60986,-8.27002 6.19995,-18.41992 5.85986,-19.35987l3.6001,0.56006c0,0 4.23999,10.75 -5.83984,19.42969z" fill="#ffbe00"></path><g><rect x="32.486" y="19.606" width="3" height="8.25" fill="#435e88"></rect><path d="M40.03959,27.07925v5.83985h-12.07007v-5.83985c0,-0.93994 0.77002,-1.71045 1.71021,-1.71045h8.6499c0.5,0 0.94995,0.22021 1.26001,0.56055c0.28003,0.2998 0.44995,0.70996 0.44995,1.1499z" fill="#5e7599"></path><path d="M30.758,53.01307c-8.6277,-10.12411 -2.78532,-20.09687 -2.78532,-20.09687h12.06612c0,0 5.84238,9.97276 -2.78532,20.09687c-1.69799,1.99249 -4.79749,1.99249 -6.49548,0z" fill="#4ef054"></path><path d="M37.2498,53.00894c-1.29004,1.52002 -3.39014,1.89014 -5.07007,1.09033c0.52002,-0.25 1.01001,-0.62012 1.40991,-1.09033c8.62012,-10.11963 2.78003,-20.08984 2.78003,-20.08984h3.66992c0,0 5.84009,9.97021 -2.78979,20.08984z" fill="#17cb3e"></path></g><g><rect x="49.33395" y="26.55787" transform="rotate(-8.829)" width="3" height="8.25" fill="#435e88"></rect><path d="M50.40971,32.51919v-0.02002l-0.90015,-5.75c-0.13989,-0.93018 0.5,-1.81006 1.43018,-1.9502l8.5498,-1.33008c0.4502,-0.06982 0.88013,0.05029 1.22021,0.29004c0.37988,0.25 0.6499,0.66016 0.72998,1.14014l0.88989,5.77002z" fill="#5e7599"></path><path d="M56.24627,51.94749c-10.07944,-8.67985 -5.83704,-19.43119 -5.83704,-19.43119l11.92313,-1.85206c0,0 7.3039,8.95781 0.33242,20.28624c-1.37203,2.22951 -4.43481,2.70526 -6.41851,0.99701z" fill="#fa644a"></path><path d="M62.66972,50.94888c-1.16016,1.87012 -3.5,2.51025 -5.3999,1.65039c0.75977,-0.33008 1.42993,-0.89014 1.8999,-1.65039c6.02002,-9.77979 1.38989,-17.79004 0.02002,-19.79004l3.13989,-0.48975c0,0 7.31006,8.94971 0.34009,20.27979z" fill="#e4341d"></path></g><g fill="#e5e8ef"><path d="M34.00688,21.22983c-10.27384,0 -20.54768,-1.70041 -30.74879,-5.10122c-0.70872,-0.23536 -1.09217,-1.00226 -0.85549,-1.71231c0.23536,-0.70872 0.99697,-1.09482 1.71231,-0.85549c19.83234,6.61122 39.94764,6.61122 59.78263,0c0.71798,-0.23933 1.47694,0.14677 1.7123,0.85549c0.23669,0.71005 -0.14677,1.47695 -0.85549,1.71231c-10.20111,3.40081 -20.47495,5.10122 -30.74747,5.10122z"></path></g><path d="M62.32963,30.66909l-11.91992,1.8501v-0.02002l10.30005,-8.74024c0.37988,0.25 0.6499,0.66016 0.72998,1.14014z" fill="#435e88"></path><path d="M40.03959,27.07925v5.83985h-12.07007v-0.02979l11.62012,-6.95996c0.28003,0.2998 0.44995,0.70996 0.44995,1.1499z" fill="#435e88"></path><path d="M18.47978,26.74917l-0.89014,5.77002l-11.91992,-1.8501l0.01001,-0.08008l12.47998,-5.12012c0.27002,0.36035 0.3999,0.81006 0.32007,1.28027z" fill="#435e88"></path></g></g></svg>