<svg width="10" height="12" viewBox="0 0 10 12" fill="none" xmlns="http://www.w3.org/2000/svg">
<g clip-path="url(#clip0_509_9622)">
<path d="M4.065 11.7579C0.636409 6.82104 0 6.31437 0 4.5C0 2.01471 2.02842 0 4.53061 0C7.03281 0 9.06122 2.01471 9.06122 4.5C9.06122 6.31437 8.42481 6.82104 4.99623 11.7579C4.77123 12.0807 4.28997 12.0807 4.065 11.7579ZM4.53061 6.375C5.5732 6.375 6.41837 5.53554 6.41837 4.5C6.41837 3.46446 5.5732 2.625 4.53061 2.625C3.48803 2.625 2.64286 3.46446 2.64286 4.5C2.64286 5.53554 3.48803 6.375 4.53061 6.375Z" fill="#141414"/>
</g>
<defs>
<clipPath id="clip0_509_9622">
<rect width="9.06122" height="12" fill="white"/>
</clipPath>
</defs>
</svg>
